<svg xmlns="http://www.w3.org/2000/svg" xml:space="preserve" viewBox="0 0 1024 416"><path fill="#fff" d="M1 375.4c6.008.52 11.72-1.63 17.583-2.206 12.178-1.196 24.29-3.05 36.437-4.575 8.382-1.052 16.775-2.013 25.164-3.001 2.848-.336 4.828-2.38 5.192-4.663.705-4.416 3.106-8.209 3.425-12.886.334-4.903 3.081-9.602 4.418-14.487 1.586-5.797 5.227-10.932 4.899-17.423-.11-2.18.11-5.478 3.122-6.885.386-.18.83-.778.824-1.175-.21-12.08 7.162-22.194 8.795-33.814.27-1.931.36-4.763 3.92-4.818-1.424-3.14-1.242-6.028-.066-8.902 6.007-14.677 9.068-30.29 14.356-45.234 2.795-7.9 4.408-16.595 7.198-24.46 3.69-10.404 6.136-21.35 11.675-31.225 3.036-5.413 3.815-12.103 5.526-18.242.391-1.402-.691-2.484-1.283-3.667-1.944-3.884-6.207-6.913-3.5-12.46.78-1.598-1.738-5.562-3.19-5.677-6.348-.503-2.68-4.595-3.066-7.117-1.065-2.059-7.742-1.349-3.001-6.274.285-.297-.81-2.667-1.77-3.293-5.136-3.35-5.46-3.875-4.137-9.677-1.27-.486-1.027 1.54-2.382 1.215-1.06-1.347 1.217-4.3-2.315-5.212-.893-.23-3.41-3.753-1.687-6.828 1.159-2.068.628-3.508-2.337-4.056-4.01-.741-5.142-4.879-2.664-8.332.693-.965.648-2.023.031-2.772-2.486-3.02-3.128-6.947-5.16-10.18-1.563-.489-.59 1.327-1.397 1.496-5.058-4.334-10.194-17.05-9.358-23.639-3.707-.685-5.541-3.39-7.077-6.688-1.724-3.701.7-6.02 2.23-8.344-.267-2.335-2.454-.978-3.201-2.191.993-3.419 4.375-5.222 5.634-8.562.324-.86 3.532-1.392 5.952-.634 2.842.89 6.166-.674 9.17.671 2.058.922 4.56 1.44 4.375 4.545-.02.325-.011.891.143.954 6.86 2.781 4.478 10.104 7.272 14.9 1.63 2.8 3.03 5.136 6.548 3.809 1.189 1.87.008 2.789-.787 3.803-1.016 1.294-1.558 2.789-.407 4.108 4.622 5.297 5.267 12.427 8.941 18.316 1.797-.651-.707-3.102 1.713-4.054 1.99 8.163 3.42 16.755 8.392 23.496 4.954 6.716 4.902 16.516 13.529 21.806 1.986-6.43 4.854-11.815 6.014-17.831.735-3.81 2.436-7.609 4.085-10.713 4.57-8.605 5.433-18.157 8.63-27.05 1.053-2.929 2.213-5.833 3.265-8.768 1.036-2.888 3.114-5.507 1.67-8.91-.268-.632-.017-2.03.47-2.35 4.675-3.064 4.871-8.58 7.295-12.857 4.505-7.946 5.728-8.512 15.768-6.213 2.254.516 3.79.097 5.541-.735 1.427 4.426-.708 7.745-2.893 11.322-3.255 5.33-5.294 11.061-6.92 17.293-1.92 7.356-4.563 14.797-7.509 21.964-4.467 10.868-7.517 22.175-11.03 33.352-3.262 10.378-7.286 20.544-11.504 30.58-2.067 4.917-2.544 9.416-.522 14.304 2.703 6.536 1.463 12.173-2.962 17.859-1.925 2.474-3.569 5.286-5.715 7.708-.53.6-.759 1.581-1.692 1.506-4.377-.35-5.32 3.116-6.15 6.01-3.833 13.375-9.23 26.208-12.775 39.737-2.686 10.25-7.029 20.218-9.99 30.488-4.56 15.818-9.445 31.544-13.786 47.437-3.074 11.256-7.232 22.44-10.333 33.714-2.992 10.875-7.427 21.333-9.465 32.476-.531 2.907-1.598 5.713-2.296 8.595-.574 2.373.367 3.386 2.91 3.167 10.576-.914 21.164-1.707 31.744-2.586 10.57-.88 21.129-1.93 31.708-2.687 15.856-1.133 31.726-2.074 48.528-3.157-5.035-12.844-15.312-21.106-21.96-32.335-1.456 1.802-3.129 2.282-3.415 4.534-.835 6.574-6.017 8.45-11.404 4.31-.64-.491-1.087-1.234-1.593-1.824-1.65-.594-1.963 1.806-3.925 1.32-.063-2.553-3.43-3.633-3.212-6.863.602-8.907 1.327-17.759 5.113-26.036 1.387-3.031-.517-5.404-1.68-7.959-2.496-5.483-5.176-11.17-3.629-17.26 1.063-4.183 3.439-8.086 5.541-11.943 4.264-7.82 9.021-15.253 15.96-21.144 2.028-1.722 4.383-2.752 6.455-4.343 5.69-4.37 8.739-10.065 10.862-16.752 1.667-5.25 4.623-10.075 6.605-15.243 2.71-7.068 4.476-14.48 8.307-21.14 1.158-2.012 2.028-3.767 5.088-3.348-2.767-1.632-2.716-4.063-1.832-5.855 6.012-12.186 9.03-25.495 14.465-37.904 2.727-6.225 4.953-12.709 7.352-19.056 1.2-3.177 1.8-6.241 4.426-8.632 2.748-2.501.55-6.043 1.688-9.055 2.449-6.48 3.89-12.936 9.418-18.379 2.757-2.715 6.288-6.067 8.387-10.096.896-1.72 3.663-3.754 6.387-1.333 2.125-3.289 4.785-1.874 7.57-.694 2.563 8.959 2.27 18.281 2.066 27.646-.146 6.694-1.271 13.361.416 20.148.915 3.68-.535 7.731-.431 11.738.18 6.936.915 13.768 1.58 20.642.366 3.783-.176 7.566.157 11.459.53 6.206 2.09 12.562.953 18.939-.557 3.127 1.765 5.617 2.011 8.202 9.536 2.338 16.736-2.94 24.524-6.325 11.727-5.098 8.504-4.651 17.022 3.773-4.246 3.608-5.492 9.079-8.33 13.557-3.638 5.745-9.83 8.714-16.162 10.742-4.52 1.447-8.258 4.166-12.338 6.326-1.498.793-3.04 2.231-2.613 3.947 1.985 7.957-.957 16.207 1.892 24.222 1.06 2.982-1.027 6.961-.406 10.245 2.436 12.882 1.954 25.963 2.712 38.917.79 13.5.027 27.15-1.272 40.685-.54 5.623.557 11.319-1.023 17.165 13.08.542 25.902-.602 38.73-1.628a80.195 80.195 0 0 1 5.98-.244c19.774-.1 39.441-2.248 59.177-3.077 3.616-.152 5.893-2.41 6.04-5.521.293-6.155 3.025-11.728 4.199-17.627 1.157-5.811 3.006-12.217 5.993-17.884 2.545-4.829 2.444-10.497 3.976-15.729 2.844-9.717 5.73-19.45 8.532-29.194 2.483-8.639 3.173-18.06 6.63-26.016 4.225-9.726 5.156-20.144 8.994-29.928 3.023-7.704 6.921-15.842 6.833-24.633-.03-3.01 2.422-4.594 3.036-7.217 1.893-8.086 3.07-16.28 7.367-23.84 1.332-2.343 1.765-6.995 1.584-10.652-.37-7.486 2.866-14.042 5.2-20.801 2.246-6.5.47-13.239 1.766-19.81 1.394-7.068 2.093-14.276 3.01-21.434.582-4.547.514-9.05-.978-13.726-3.69 1.122-5.313 3.543-6.926 5.679-12.208 16.162-23.48 32.888-33.624 50.501-8.125 14.106-13.72 29.28-21.183 43.62-3.192 6.131-3.07 13.278-3.798 19.987-1.05 9.66-2.607 19.193-4.109 28.773-1.206 7.695-4.288 14.514-6.582 21.715-.67 2.106-1.216 3.656-3.847 3.568-1.609-.054-2.597 1.309-3.602 2.441-1.804 2.033-3.556 2.397-6.014.604-3.087-2.25-8.648-1.484-8.448-7.92 1.545-1.435 4.783-2.211 3.61-6.292-.74-2.58-2.462-1.54-4.266-2.473 1.047-8.072-.261-16.639 3.883-24.409 1.482-2.778 1.07-5.828 1.773-8.72 1.905-7.817 7.315-14.63 7.12-22.908-.197-8.438 1.806-16.59 2.306-24.924.469-7.816.249-15.658 1.658-23.454.78-4.321.14-8.9-.282-13.475-6.852 15.515-12.338 31.436-17.252 47.677-3.054 10.094-5.188 20.374-7.833 30.524-1.19 4.569-1.903 9.524-2.53 14.365-.623 4.798-3.335 9.317-3.68 14.25-.916 13.108-6.55 25.533-5.359 38.983.26 2.94-1.078 6.132-2.115 9.054-2.491 7.023-1.592 14.414-2.69 21.573-.5 3.265 3.496 3.378 3.222 5.858-5.062 9.516-8.413 19.318-4.155 30.14-1.562 1.523-3.047-.967-4.946 1.092 1.532 4.885.344 10.273-.642 15.721-.816 4.507-3.512 5.996-7.042 3.082-3.665-3.025-7.983-5.103-11.35-8.598-3.338-3.466-2.685-7.692-2.988-11.67-.99-12.989.358-25.785 3.965-38.329.188-.656.246-1.213.916-1.594 4.99-2.836 3.628-6.688 2.395-11.158-1.68-6.093-1.683-12.415 1.907-18.124.353-.563.907-.942.62-1.69-2.722-7.09 2.046-13.395 2.094-20.18.019-2.704 2.378.188 2.854-1.745-2.586-2.174-2.058-5.064-.795-7.896 2.062-4.622 1.303-10.225 6.205-14.025 2.044-1.584 1.187-6.047.287-9.105-.614-2.086-.555-3.893.401-5.763 2.535-4.957 1.918-10.88 4.14-15.694 3.134-6.785 3.57-14.57 8.647-20.784 1.497-1.831.449-6.604 1.405-10.047.46-1.66.472-3.638 1.251-5.218 4.503-9.127 8.12-18.678 11.136-28.299 3.407-10.865 9.709-20.347 13.178-31.087 3.11-9.626 10.527-16.755 14.966-25.484 3.781-7.434 9.205-6.588 15.27-6.132 2.121.16 3.331 1.172 3.516 3.414.483 5.857 2.01 12.273 1.215 17.449-1.34 8.713-.095 17.403-1.637 26.047-.888 4.979-1.282 10.671 2.001 16.845 3.825-8.672 9.207-15.09 13.514-22.172 6.113-10.052 12.948-19.492 20.299-28.672 4.05-5.06 7.38-11.348 11.784-15.529 5.518-5.238 11.003-11.331 18.73-14.397 3.4-1.35 7.689-.676 9.917-4.485 2.153 2.635.017 3.673-1.118 5.205 4.238 3.458 6.452 6.937 6.551 13.383.363 23.48-1.917 46.632-7.03 69.377-3.496 15.544-6.53 31.21-10.864 46.628-3.825 13.603-8.509 26.961-11.747 40.8-4.683 20.013-12.075 39.377-17.19 59.306-3.836 14.938-9.054 29.45-12.648 44.456-1.295 5.408-3.489 10.716-4.662 16.212-1.468 6.878-3.279 13.616-5.624 20.25-1.251 3.539.84 5.967 5.078 5.883 7.969-.157 16.018-.055 23.869-1.195 7.438-1.08 14.914-.95 22.327-1.45 9.582-.646 19.21-1.904 28.88-1.3 1.922.12 4.43.54 5.124-1.949.713-2.555-1.527-3.876-3.334-4.98-2.928-1.787-5.45-3.795-5.824-7.335-2.108-.352-.212 1.942-2.569 1.566-1.912-1.192-1.366-5.172-4.765-6.403 1.94-2.374 5.036-4.375-.198-6.346-2.51-.945-1.515-4.18-.978-6.733 1.764-8.38 5.565-16.03 9.957-23.052 3.766-6.021 6.428-13.088 12.779-17.45 2.876-1.976 4.783-5.228 7.193-7.817 9.035-9.705 19.612-17.479 29.799-25.78 6.005-4.895 12.872-8.461 19.086-13.075 6.432-4.776 14.707-7.026 22.06-10.62 6.465-3.161 13.34-5.777 18.617-10.852 1.754-1.687 2.833-.229 4.239-.12V194.7c.448-.035.894-.196 1.018-.06 2.653 2.88 5.006 2.184 8.268.42 4.292-2.32 7.82-6.554 13.439-6.172 1.467.1 1.973-1.6 2.903-2.51 1.45-1.42 2.686-3.653 5.31-2.214.754 1.721-1.535.902-1.503 2.324 3.567.677 4.882-1.634 5.692-4.463 9.03 4.415 7.542 3.386 11.359-1.557 1.888 2.175 4.784 1.906 5.841.049 1.874-3.292 4.455-1.741 6.807-2.159 7.466-1.325 15.36 1.768 22.622-2.48 1.632-.954 4.246-.29 6.407-.267 2.661.028 5.193.116 7.669-1.474 1.876-1.205 4.458-1.053 6.08.59 2.999 3.042 5.66 2.957 8.42-.378 1.924 2.614 2.933 4.524 7.082 5.146 5.355.804 11.403 3.333 15.913 7.553.999.935.67 2.07.735 3.517 4.029-1.126 4.307.455 5.025 4.364 1.649 8.98-2.407 16.627-4.364 24.59-1.83 7.444-8.132 12.133-14.997 16.14-11.227 6.552-23.965 5.851-35.766 9.179-8.64 2.437-17.49 3.6-26.144 5.78-12.364 3.113-24.957 5.658-37.523 8.123-12.166 2.387-24.368 4.758-36.553 7.039-14.182 2.654-28.872 4.325-42.718-.675-7.241-2.614-11.538-1.716-16.623 3.536-7.323 7.565-16.223 13.56-21.799 22.865-4.832 8.065-2.859 13.105 6.507 14.634 3.57.582 5.837 3.552 9.568 3.924 2.684.267-.381 4.128 2.07 5.596 2.384.351 2.707-2.374 4.679-3.539 3.638 4.531 10.364 3.448 14.456 8.29l3.577-5.247c2.7.962 5.454 2.596 8.434-.2 2.445 3.543 5.17 5.72 8.928 1.122 2.561 4.838 6.192 4.118 10.176 2.717 2.884-1.014 5.785-2.915 9.075-.656 1.152.79 2.254-.45 2.889-1.369 2.413-3.486 5.763-3.525 9.199-2.37 2.384.8 1.005-1.965 2.39-1.988 1.524.704-.193 2.997 1.344 3.53 5.354-2.431 10.465-5.21 16.307-4.881 4.401.247 8.397.288 12.892-1.014 6.444-1.867 12.763-4.679 19.747-4.876 2.963-.083 6.024-.876 8.64-3.227 2.413-2.17 5.584-3.382 9.268-3.029 2.286.219 5.162.264 6.317-2.808.098-.26.482-.54.769-.584 9.148-1.436 16.664-7.77 26.001-8.65 2.863-.27 5.506-.41 5.533 3.617.003.463.187 1.21.497 1.345 5.9 2.576 2.223 5.851.838 9.144-3.484 8.282-9.75 12.707-18.15 15.73-9.661 3.478-19.79 5.537-29.14 9.86-.988.456-2.318.528-2.937 2.146 4.532 1.724 9.343 1.475 13.69.705 9.09-1.61 18.23-.557 27.346-1.536 12.03-1.291 24.257-.623 36.367-1.344 9.635-.574 19.257-.848 28.902-.997 6.431-.1 8.763-2.446 8.77-8.673.002-3.243 1.25-5.347 3.607-7.173 1.65.528.75 1.914 1.011 2.94.248-.039.597.016.749-.132 2-1.941 3.61-3.966 1.972-6.996-.566-1.048-.473-3.19.146-3.232 5.669-.386 3.107-4.933 4.063-7.64 2.827-7.999 8.28-14.49 12.433-21.726.653-1.138 1.921-2.044 2.239-3.235 2.989-11.197 10.653-19.836 15.884-29.78 3.658-6.954 8.361-13.188 11.953-20.178 6.342-12.341 13.882-24.028 21.955-35.36 6.086-8.542 11.973-17.241 17.58-26.105 3.804-6.014 9.059-10.173 15.036-13.62 2.155-1.242 6.41 1.127 7.034 3.721 1.272 5.292.917 10.645-.418 15.77-4.344 16.681-8.648 33.374-12.988 50.05-3.115 11.972-5.364 24.043-7.957 36.084-1.104 5.123-1.779 10.444-3.603 15.429-1.177 3.218-1.18 6.472-.644 10.266 5.405-3.495 7.106-9.275 10.124-14.018 3.478-5.467 6.358-11.318 9.894-16.744 5.593-8.587 10.647-17.458 15.705-26.36 2.26-3.977 5.55-7.873 7.787-11.806 4.661-8.194 9.662-16.179 14.73-24.083 5.864-9.144 10.118-19.139 16.044-28.247 5.982-9.195 12.182-18.477 16.385-28.517 2.635-6.295 8.718-11.011 8.532-18.505 4.447-2.304 3.041-6.419 2.904-9.987-.194-5.068 5.01-2.326 6.895-4.969 1.221-1.712 4.326-2.211 4.553-5.779 2.09 4.945 4.93.577 7.629 1.7 1.67 3.953 1.47 8.15.3 12.805-2.845 11.322-8.114 21.654-13.73 31.566-6.826 12.048-12.617 24.69-20.726 36.086-6.096 8.568-10.34 18.43-16.067 27.29-4.06 6.281-7.313 12.983-11.296 19.295-8.065 12.777-15.704 25.822-23.51 38.762-8.414 13.943-16.719 27.952-25.275 41.806-3.468 5.615-7.388 10.96-11.266 16.311-2.996 4.135-7.833 5.859-12.09 7.946.461 2.203 1.833 2.25 2.854 1.968 5.588-1.539 11.271-.728 16.905-.8 18.633-.238 37.261-.874 55.887-1.283 15.25-.336 30.55-.72 45.78-1.855 11.208-.835 22.358-2.427 33.96-3.613.427.069.427.569.111.995-2.625 1.756-4.98 2.866-7.629 3.508-12.84 3.11-26.03 2.866-39.05 3.742-20.535 1.381-41.153 1.537-61.736 2.216-10.13.335-20.267.35-30.402.703-23.084.804-46.187 1.169-69.266 2.292-4.022.195-8.093.073-11.425 2.983-1 .873-2.118.652-3.187-.162-2.408-1.834-5.253-1.823-8.1-1.83-17.785-.044-35.521 1.168-53.28 1.88-15.267.612-30.543.911-45.786 2.094-19.683 1.527-39.598-.662-59.046 5.466-5.44 1.714-12.034 1.854-18.022 2.882-22.388 3.843-44.733 5.115-67.35 2.032-4.76-.649-9.38-2.329-14.164-2.263-9.636.132-19.275.49-28.897 1.033-14.891.84-29.77 1.9-44.653 2.889-9.597.638-19.187 1.404-28.79 1.92-3.097.167-4.724 1.843-5.158 4.46-.511 3.08-.824 6.275-1.373 9.296-1.728 9.507-1.548 20.182-12.86 24.995-3.088 1.314-5.194 1.253-6.463-1.867-2.432-5.98-5.69-11.764-3.37-18.744 1.287-3.87 1.48-8.094 2.658-12.01 1.2-3.989.418-5.283-3.906-4.974-13.389.956-26.767 2.099-40.167 2.851-15.41.865-30.839 1.35-46.255 2.09-4.123.2-8.475.006-12.284 1.29-5.04 1.7-1.52 7.557-3.943 10.864-.435.593-.354 1.598-.423 2.42-.883 10.493-4.492 20.208-8.163 29.966-2.5 6.642-8.322 8.91-13.834 11.174-5.259 2.162-10.39-1.331-14.156-4.156-8.134-6.1-16.313-12.622-19.607-23.05-.126-.401-.641-.976-.97-.973-3.607.036-2.59-2.565-2.542-4.797-1.638 1.526-2.5.7-3.689-.482-2.146-2.135-3.105-5.13-4.088-7.553-3.277-8.076-4.635-10.031-12.975-9.645-14.407.667-28.778 2.122-43.184 2.81-23.214 1.109-46.327 3.503-69.507 4.99-3.173.203-4.347 1.724-5.145 4.333-3.76 12.294-7.466 24.605-11.43 36.833-1.025 3.159-2.439 6.144-2.067 9.568-6.021 0-12.042 0-18.528-.388 3.444-15.902 8.84-31.052 11.57-47.167-8.12-.87-15.397 1.246-22.779 1.733-11.53.762-23.054 2.036-34.485 3.737C16.836 376.097 8.64 376.011 1 379v-3.6m280.816-28.698c-.31-2.119-1.549-4.709-.757-6.268 2.243-4.415.817-8.79.762-13.132-.068-5.393-1.442-11.42 1.237-15.87 2.546-4.23.604-4.575-2.401-5.698 2.03-12.144-2.932-24.446.526-35.885-4.418-14.408-1.778-29.56-5.806-43.47-.892 0-1.263-.102-1.543.014-13.863 5.742-28.132 10.557-41.383 17.697-4.13 2.225-7.902 4.658-9.545 9.947-1.165 3.75-1.116 8.265-3.44 11.197-5.033 6.35-5.26 13.885-6.184 21.124-.492 3.855 1.757 7.711 5.834 9.748 1.862.93 2.748 2.719 3.03 4.25.116 2.525-1.96-.849-1.962 1.242 5.64 10.524 15.947 17.802 19.757 30.416 1.314-3.736 1.314-3.736 4.352-4.527-3.263 3.757-2.623 6.594 1.45 8.66.555.28 1.552.744 1.512.99-.714 4.447 2.82 7.07 4.456 10.474 1.549 3.223 4.153 5.218 7.92 5.014 4.632-.25 9.267-1.02 13.879-.872 3.857.124 6.692-.577 8.306-5.05m536.488-35.187c-.41 1.077-.556 2.4-1.283 3.183-1.952 2.105-2.338 4.547-1.344 6.941 1.152 2.779 4.003 1.813 6.205 1.94 12.65.725 25.223-1.452 37.873-1.08 1.563.046 3.313.025 5.069-1.457-2.85-3.069-6.556-5.604-6.367-10.518.095-2.468-1.834-4.617-2.51-6.752-2.476-7.82-.093-16.236 1.79-23.454 3.04-11.648 4.309-23.778 8.694-35.074 1.108-2.851-.844-6.067.418-8.527 2.706-5.277 3.06-11.096 4.84-16.537.784-2.395-.056-3.953-.595-6.709-4.62 6.807-8.504 13.065-12.57 19.164-11.346 17.023-19.65 35.61-29.64 53.304-1.65 2.92-1.637 6.115-3.393 9.104-2.856 4.862-6.23 9.793-7.187 16.472m-206.454-75.67c3.541-1.816 7.171-2.607 11.037-1.03.27.11.707.044.975-.104 3.327-1.842 5.664-.39 6.611 1.165 9.47.433 16.473-4.18 24.817-6.484 2.339 2.204 5.687 2.156 8.996-.14 1.567-1.088 3.47-2.299 4.988-1.903 6.667 1.736 12.29-1.467 17.714-3.965 5.81-2.676 10.71-6.481 17.918-4.45 5.763 1.622 11.125-.444 14.722-5.754.104-.153.63-.02 1.136-.02 1.705.226.29 3.051 2.886 3.173 3.448-3.23 9.76-2.486 13.206-7.97-3.934-1.646-7.23-3.565-11.326-4.072-15.333-1.898-30.42-.946-45.59 2.021-21.927 4.29-42.975 10.93-63.134 20.57-3.26 1.558-6.055 4.191-9.776 4.702-4.993.684-8.464 3.845-12.355 6.626 1.475 2.095 2.776 4.335 4.842 3.722 4.232-1.256 9.263-2.141 8.418-8.384 2.05.084 2.888.794 3.915 2.296M262.172 158.2c-8.215 16.766-14.667 34.2-20.974 53.019 8.681-3.412 16.815-3.033 23.974-6.703 1.598-.851-.068-3.303.897-3.864 2.971-1.375 2.692 1.058 3.735 1.446 3.365-1.248 3.893-3.961 3.804-6.927-.224-7.377-1.364-14.656-1.435-22.109-.081-8.5-2.363-17.025-1.158-25.647.36-2.572-1-3.392-2.835-3.825-1.897-.45-2.49.927-2.917 2.57-1.01 3.877-2.2 7.708-3.091 12.04m13.33 197.498c-3.536 1.246-7.202.496-10.806.685-1.377.073-2.715.195-3.218 1.732-.297.906-.776 2.181.37 2.66 3.389 1.418 5.288 4.91 8.892 6.05 3.55 1.124 8.775-.37 9.006-3.363.222-2.874 2.044-7.24-4.244-7.764z"/><path fill="#fff" d="M590.238 93.27c3.765-3.594 7.472-6.634 11.878-8.804 2.503-1.233 5.024-2.6 6.137-5.518.269-.705 1.006-1.751 1.539-1.758 9.342-.115 15.581-7.291 23.645-10.283 8.878-3.293 17.416-7.446 26.523-10.19 6.856-2.066 14.215-3.602 20.102-7.34 3.843-2.44 6.836-1.622 10.316-1.674 5.848-.089 10.954-3.093 16.292-4.785 3.917-1.242 7.333 2.239 10.936-.558 2.79-2.165 7.091-.618 9.481-1.354 5.194-1.597 9.891 1.474 14.62-.313 1.122-.424 2.701-.652 3.212.468 2.268 4.975 5.51 3.328 8.948 1.674 1.962-.944 4.12-1.999 5.115 1.024 2.662-.648 2.183-3.456 3.882-4.528 5.402 8.609 6.07 8.901 9.37 3.795 2.497 4.334 6.702 2.944 10.433 3.829 5.418 1.285 11.167 2.754 16.017 6.023 2.873 1.937 6.114 2.277 9.36 2.15 4.631 7.719 3 20.456-1.812 22.838-.213 1.722 2.455 2.316 1.82 3.954-12.177 6.288-25.583 7.957-38.374 11.68-9.962 2.9-19.89 6.13-30.051 8.085-14.29 2.752-28.123 7.305-42.438 9.921-8.422 1.54-16.678 3.988-25.013 6.01-7.224 1.755-14.593 3.05-21.65 5.32-13.855 4.456-28.014 6.948-42.498 7.235-6.08.12-12.049-1.673-16.865-5.698-2.375-1.985-4.135-1.73-5.986.275-1.23 1.332-2.226 2.878-3.424 4.242-1.708 1.944.038 3.773.363 5.492.27 1.424 2.16.505 3.435.521 3.938.05 8.115-.03 11.307 2.782 3.014 2.656 5.198 2.658 6.534-1.195 5.009 1.14 9.655 2.052 14.515-.399 2.415 5.675 6.25 5.9 11.345 3.034 3.634-2.044 8.518.004 12.1-3.16.908-.802 2.09.557 3.148.968 4.58 1.777 11.547.241 14.15-2.796 5.188.552 10.15.878 15.18.62 2.914-.148 1.821-1.805 1.51-3.304 2.916-.724 4.618 1.233 6.578 2.844 5.38-2.766 11.296-4.115 16.884-6.287 2.451-.953 5.384-.58 7.478-3.143.675-.826 2.671-1.39 3.65-1.01 4.725 1.832 9.315 1.257 14.115.36 4.032-.752 7.965-1.316 10.863-4.542.396-.441.724-.662 1.217-.423 5.28 2.567 8.908-1.644 13.335-2.782 5.832-1.5 11.681-4.283 18.042-3.432.816.109 2.041.657 2.38.314 4.235-4.297 10.301-3.144 15.254-5.247 1.74-.738 2.364-2.192 3.176-3.938 1.573 1.148 2.242 3.537 4.343 3.27 2.375-.565.688-2.874 2.297-3.95 7.35 2.987 13.396-2.556 20.275-3.705 2.097-.35 3.398.987 4.953 2.355l-1.683 3.368c1.561.545 3.27-.754 4.729 1.69-5.661 1.766-2.49 7.432-5.045 11.538-3.616 5.808-8.658 7.847-13.94 9.336-11.276 3.178-22.49 6.651-33.85 9.46-6.398 1.583-12.983 2.861-19.183 4.888-16.669 5.449-34.139 7.182-50.963 12-13.61 3.9-27.88 5.541-41.9 7.938-10.102 1.727-20.236 3.426-30.425 4.431-8.044.794-16.21.267-24.294.774-8.06.505-15.925-.65-23.68-2.345-6.926-1.514-13.716-4.202-18.424-9.645-1.453-1.679-2.429-5.25-2.044-8.283.27-2.129-.39-3.879-2.081-5.465-.556 1.96-.858 3.925-2.79 4.954.863-15.678 13.537-37.094 35.631-53.606m125.395-13.743c4.342.865 8.638 2.347 11.832-2.76 1.232-1.97 4.073-1.709 6.376-1.35 3.647.568 5.961-.945 7.752-4.659-46.851-2.76-89.137 9.34-129.21 33.228 3.58 3.453 6.2 1.45 8.844-.077 2.985-1.725 5.835-3.805 9.669-2.276 1.319.526 2.82.84 4.358.132 5.999-2.76 12.539-3.956 18.689-6.382 2.851-1.125 5.95-2.715 9.306-2.434 6.459.54 11.881-.79 13.908-7.744 2.69.596 4.327 4.162 6.412 2.903 6.383-3.858 14.641.302 20.512-5.201.577-.541 2.084-.624 2.897-.288 3.665 1.517 5.923-.347 8.655-3.092z"/></svg>